<svg width="87" height="18" viewBox="0 0 87 18" fill="none" xmlns="http://www.w3.org/2000/svg">
<path d="M37.471 14H36.421C36.2997 14 36.2017 13.9697 36.127 13.909C36.0523 13.8483 35.9963 13.7713 35.959 13.678L35.021 11.256H30.52L29.582 13.678C29.5493 13.762 29.4933 13.8367 29.414 13.902C29.3347 13.9673 29.2367 14 29.12 14H28.07L32.081 3.969H33.46L37.471 14ZM30.898 10.276H34.643L33.068 6.195C32.9653 5.943 32.865 5.628 32.767 5.25C32.7157 5.44133 32.6643 5.61867 32.613 5.782C32.5663 5.94067 32.5197 6.08067 32.473 6.202L30.898 10.276ZM39.9236 3.689V14H38.6776V3.689H39.9236ZM43.5057 3.689V14H42.2597V3.689H43.5057ZM50.5577 14.112C49.9977 14.112 49.5661 13.9557 49.2627 13.643C48.9641 13.3303 48.8147 12.88 48.8147 12.292V7.952H47.9607C47.8861 7.952 47.8231 7.931 47.7717 7.889C47.7204 7.84233 47.6947 7.77233 47.6947 7.679V7.182L48.8567 7.035L49.1437 4.844C49.1531 4.774 49.1834 4.718 49.2347 4.676C49.2861 4.62933 49.3514 4.606 49.4307 4.606H50.0607V7.049H52.0907V7.952H50.0607V12.208C50.0607 12.5067 50.1331 12.7283 50.2777 12.873C50.4224 13.0177 50.6091 13.09 50.8377 13.09C50.9684 13.09 51.0804 13.0737 51.1737 13.041C51.2717 13.0037 51.3557 12.964 51.4257 12.922C51.4957 12.88 51.5541 12.8427 51.6007 12.81C51.6521 12.7727 51.6964 12.754 51.7337 12.754C51.7991 12.754 51.8574 12.7937 51.9087 12.873L52.2727 13.468C52.0581 13.6687 51.7991 13.8273 51.4957 13.944C51.1924 14.056 50.8797 14.112 50.5577 14.112ZM53.6314 14V6.909H54.3454C54.4807 6.909 54.574 6.93467 54.6254 6.986C54.6767 7.03733 54.7117 7.126 54.7304 7.252L54.8144 8.358C55.057 7.86333 55.3557 7.47833 55.7104 7.203C56.0697 6.923 56.4897 6.783 56.9704 6.783C57.1664 6.783 57.3437 6.80633 57.5024 6.853C57.661 6.895 57.808 6.95567 57.9434 7.035L57.7824 7.966C57.7497 8.08267 57.6774 8.141 57.5654 8.141C57.5 8.141 57.3997 8.12 57.2644 8.078C57.129 8.03133 56.94 8.008 56.6974 8.008C56.2634 8.008 55.8994 8.134 55.6054 8.386C55.316 8.638 55.0734 9.00433 54.8774 9.485V14H53.6314ZM62.0849 6.797C62.5095 6.797 62.9015 6.86933 63.2609 7.014C63.6202 7.154 63.9305 7.35933 64.1919 7.63C64.4532 7.896 64.6562 8.22733 64.8009 8.624C64.9502 9.016 65.0249 9.464 65.0249 9.968C65.0249 10.164 65.0039 10.2947 64.9619 10.36C64.9199 10.4253 64.8405 10.458 64.7239 10.458H60.0059C60.0152 10.906 60.0759 11.2957 60.1879 11.627C60.2999 11.9583 60.4539 12.236 60.6499 12.46C60.8459 12.6793 61.0792 12.845 61.3499 12.957C61.6205 13.0643 61.9239 13.118 62.2599 13.118C62.5725 13.118 62.8409 13.083 63.0649 13.013C63.2935 12.9383 63.4895 12.859 63.6529 12.775C63.8162 12.691 63.9515 12.614 64.0589 12.544C64.1709 12.4693 64.2665 12.432 64.3459 12.432C64.4485 12.432 64.5279 12.4717 64.5839 12.551L64.9339 13.006C64.7799 13.1927 64.5955 13.356 64.3809 13.496C64.1662 13.6313 63.9352 13.7433 63.6879 13.832C63.4452 13.9207 63.1932 13.986 62.9319 14.028C62.6705 14.0747 62.4115 14.098 62.1549 14.098C61.6649 14.098 61.2122 14.0163 60.7969 13.853C60.3862 13.685 60.0292 13.4423 59.7259 13.125C59.4272 12.803 59.1939 12.4063 59.0259 11.935C58.8579 11.4637 58.7739 10.9223 58.7739 10.311C58.7739 9.81633 58.8485 9.35433 58.9979 8.925C59.1519 8.49567 59.3712 8.12467 59.6559 7.812C59.9405 7.49467 60.2882 7.24733 60.6989 7.07C61.1095 6.888 61.5715 6.797 62.0849 6.797ZM62.1129 7.714C61.5109 7.714 61.0372 7.889 60.6919 8.239C60.3465 8.58433 60.1319 9.065 60.0479 9.681H63.9049C63.9049 9.39167 63.8652 9.128 63.7859 8.89C63.7065 8.64733 63.5899 8.43967 63.4359 8.267C63.2819 8.08967 63.0929 7.95433 62.8689 7.861C62.6495 7.763 62.3975 7.714 62.1129 7.714ZM71.8277 14H71.2747C71.1533 14 71.0553 13.9813 70.9807 13.944C70.906 13.9067 70.857 13.8273 70.8337 13.706L70.6937 13.048C70.507 13.216 70.325 13.3677 70.1477 13.503C69.9703 13.6337 69.7837 13.7457 69.5877 13.839C69.3917 13.9277 69.1817 13.9953 68.9577 14.042C68.7383 14.0887 68.4933 14.112 68.2227 14.112C67.9473 14.112 67.6883 14.0747 67.4457 14C67.2077 13.9207 67 13.804 66.8227 13.65C66.6453 13.496 66.503 13.3023 66.3957 13.069C66.293 12.831 66.2417 12.551 66.2417 12.229C66.2417 11.949 66.3187 11.6807 66.4727 11.424C66.6267 11.1627 66.874 10.9317 67.2147 10.731C67.56 10.5303 68.0103 10.367 68.5657 10.241C69.121 10.1103 69.8 10.0357 70.6027 10.017V9.464C70.6027 8.91333 70.4837 8.498 70.2457 8.218C70.0123 7.93333 69.6647 7.791 69.2027 7.791C68.8993 7.791 68.6427 7.83067 68.4327 7.91C68.2273 7.98467 68.0477 8.071 67.8937 8.169C67.7443 8.26233 67.6137 8.34867 67.5017 8.428C67.3943 8.50267 67.287 8.54 67.1797 8.54C67.0957 8.54 67.021 8.519 66.9557 8.477C66.895 8.43033 66.846 8.37433 66.8087 8.309L66.5847 7.91C66.9767 7.532 67.399 7.24967 67.8517 7.063C68.3043 6.87633 68.806 6.783 69.3567 6.783C69.7533 6.783 70.1057 6.84833 70.4137 6.979C70.7217 7.10967 70.9807 7.29167 71.1907 7.525C71.4007 7.75833 71.5593 8.04067 71.6667 8.372C71.774 8.70333 71.8277 9.06733 71.8277 9.464V14ZM68.5937 13.237C68.813 13.237 69.0137 13.216 69.1957 13.174C69.3777 13.1273 69.548 13.0643 69.7067 12.985C69.87 12.901 70.024 12.8007 70.1687 12.684C70.318 12.5673 70.4627 12.4343 70.6027 12.285V10.808C70.0287 10.8267 69.541 10.8733 69.1397 10.948C68.7383 11.018 68.4117 11.1113 68.1597 11.228C67.9077 11.3447 67.7233 11.4823 67.6067 11.641C67.4947 11.7997 67.4387 11.977 67.4387 12.173C67.4387 12.3597 67.469 12.5207 67.5297 12.656C67.5903 12.7913 67.672 12.9033 67.7747 12.992C67.8773 13.076 67.9987 13.139 68.1387 13.181C68.2787 13.2183 68.4303 13.237 68.5937 13.237ZM78.7064 14C78.529 14 78.417 13.9137 78.3704 13.741L78.2584 12.88C77.955 13.2487 77.6074 13.545 77.2154 13.769C76.828 13.9883 76.3824 14.098 75.8784 14.098C75.4724 14.098 75.1037 14.021 74.7724 13.867C74.441 13.7083 74.1587 13.4773 73.9254 13.174C73.692 12.8707 73.5124 12.4927 73.3864 12.04C73.2604 11.5873 73.1974 11.067 73.1974 10.479C73.1974 9.95633 73.2674 9.471 73.4074 9.023C73.5474 8.57033 73.748 8.17833 74.0094 7.847C74.2754 7.51567 74.5974 7.25667 74.9754 7.07C75.3534 6.87867 75.7827 6.783 76.2634 6.783C76.6974 6.783 77.0684 6.85767 77.3764 7.007C77.6844 7.15167 77.9597 7.357 78.2024 7.623V3.689H79.4484V14H78.7064ZM76.2914 13.09C76.6974 13.09 77.052 12.9967 77.3554 12.81C77.6634 12.6233 77.9457 12.3597 78.2024 12.019V8.589C77.9737 8.281 77.7217 8.06633 77.4464 7.945C77.1757 7.819 76.8747 7.756 76.5434 7.756C75.8807 7.756 75.372 7.99167 75.0174 8.463C74.6627 8.93433 74.4854 9.60633 74.4854 10.479C74.4854 10.941 74.525 11.3377 74.6044 11.669C74.6837 11.9957 74.8004 12.2663 74.9544 12.481C75.1084 12.691 75.2974 12.845 75.5214 12.943C75.7454 13.041 76.002 13.09 76.2914 13.09ZM85.5957 8.078C85.5397 8.18067 85.4533 8.232 85.3367 8.232C85.2667 8.232 85.1873 8.20633 85.0987 8.155C85.01 8.10367 84.9003 8.04767 84.7697 7.987C84.6437 7.92167 84.492 7.86333 84.3147 7.812C84.1373 7.756 83.9273 7.728 83.6847 7.728C83.4747 7.728 83.2857 7.756 83.1177 7.812C82.9497 7.86333 82.805 7.93567 82.6837 8.029C82.567 8.12233 82.476 8.232 82.4107 8.358C82.35 8.47933 82.3197 8.61233 82.3197 8.757C82.3197 8.939 82.371 9.09067 82.4737 9.212C82.581 9.33333 82.721 9.43833 82.8937 9.527C83.0663 9.61567 83.2623 9.695 83.4817 9.765C83.701 9.83033 83.925 9.90267 84.1537 9.982C84.387 10.0567 84.6133 10.1407 84.8327 10.234C85.052 10.3273 85.248 10.444 85.4207 10.584C85.5933 10.724 85.731 10.8967 85.8337 11.102C85.941 11.3027 85.9947 11.5453 85.9947 11.83C85.9947 12.1567 85.9363 12.46 85.8197 12.74C85.703 13.0153 85.5303 13.2557 85.3017 13.461C85.073 13.6617 84.793 13.8203 84.4617 13.937C84.1303 14.0537 83.7477 14.112 83.3137 14.112C82.819 14.112 82.371 14.0327 81.9697 13.874C81.5683 13.7107 81.2277 13.503 80.9477 13.251L81.2417 12.775C81.279 12.7143 81.3233 12.6677 81.3747 12.635C81.426 12.6023 81.4937 12.586 81.5777 12.586C81.6617 12.586 81.7503 12.6187 81.8437 12.684C81.937 12.7493 82.049 12.8217 82.1797 12.901C82.315 12.9803 82.476 13.0527 82.6627 13.118C82.854 13.1833 83.092 13.216 83.3767 13.216C83.6193 13.216 83.8317 13.1857 84.0137 13.125C84.1957 13.0597 84.3473 12.9733 84.4687 12.866C84.59 12.7587 84.6787 12.635 84.7347 12.495C84.7953 12.355 84.8257 12.2057 84.8257 12.047C84.8257 11.851 84.772 11.69 84.6647 11.564C84.562 11.4333 84.4243 11.3237 84.2517 11.235C84.079 11.1417 83.8807 11.0623 83.6567 10.997C83.4373 10.927 83.211 10.8547 82.9777 10.78C82.749 10.7053 82.5227 10.6213 82.2987 10.528C82.0793 10.43 81.8833 10.3087 81.7107 10.164C81.538 10.0193 81.398 9.842 81.2907 9.632C81.188 9.41733 81.1367 9.15833 81.1367 8.855C81.1367 8.58433 81.1927 8.32533 81.3047 8.078C81.4167 7.826 81.58 7.60667 81.7947 7.42C82.0093 7.22867 82.273 7.077 82.5857 6.965C82.8983 6.853 83.2553 6.797 83.6567 6.797C84.1233 6.797 84.541 6.87167 84.9097 7.021C85.283 7.16567 85.605 7.36633 85.8757 7.623L85.5957 8.078Z" fill="#B5B5B5"/>
<path opacity="0.5" fill-rule="evenodd" clip-rule="evenodd" d="M8 15.4999C7.48839 15.4999 6.98962 15.4537 6.50472 15.3734L3.00005 17.5001V13.9596C1.17274 12.6767 -1.00136e-05 10.7095 -1.00136e-05 8.49994C-1.00136e-05 4.63404 3.58176 1.49997 8 1.49997C12.4183 1.49997 16 4.63404 16 8.49994C16 12.3661 12.4183 15.4999 8 15.4999ZM8 2.50014C4.13401 2.50014 0.999998 5.18641 0.999998 8.49994C0.999998 10.5332 2.18285 12.3268 3.98764 13.4121L3.9561 15.7313L6.30987 14.3165C6.85203 14.432 7.41612 14.5 8 14.5C11.866 14.5 15.0001 11.8138 15.0001 8.49994C15.0001 5.18641 11.866 2.50014 8 2.50014ZM11.5 8.00002H4.50001C4.22387 8.00002 3.99999 7.77605 3.99999 7.50006C3.99999 7.22379 4.22387 7 4.50001 7H11.5C11.7761 7 12 7.22379 12 7.50006C12 7.77605 11.7761 8.00002 11.5 8.00002ZM5.50002 10H10.5C10.7762 10 11.0001 10.2239 11.0001 10.5C11.0001 10.7763 10.7762 11.0001 10.5 11.0001H5.50002C5.22382 11.0001 5.00001 10.7763 5.00001 10.5C5.00001 10.2239 5.22382 10 5.50002 10Z" fill="white"/>
</svg>
